<?xml version="1.0" standalone="no"?>
<!DOCTYPE svg PUBLIC "-//W3C//DTD SVG 20010904//EN"
 "http://www.w3.org/TR/2001/REC-SVG-20010904/DTD/svg10.dtd">
<svg version="1.0" xmlns="http://www.w3.org/2000/svg"
 width="282.000000pt" height="282.000000pt" viewBox="0 0 282.000000 282.000000"
 preserveAspectRatio="xMidYMid meet">
<metadata>
Created by potrace 1.14, written by Peter Selinger 2001-2017
</metadata>
<g transform="translate(0.000000,282.000000) scale(0.100000,-0.100000)"
fill="#000000" stroke="none">
<path d="M1284 2797 c-72 -24 -236 -104 -374 -182 -41 -23 -106 -59 -145 -80
-38 -21 -114 -65 -168 -97 -55 -32 -101 -58 -103 -58 -5 0 -148 -92 -154 -99
-3 -4 -22 -19 -43 -34 -58 -44 -113 -120 -136 -189 -39 -120 -42 -166 -46
-673 -3 -341 -1 -446 10 -508 34 -190 101 -261 440 -469 339 -208 609 -356
708 -388 62 -20 154 -20 227 1 98 27 160 57 480 232 133 72 420 243 475 282
140 99 198 191 219 350 18 133 28 877 13 1015 -27 255 -96 318 -797 722 -275
159 -338 186 -455 193 -66 4 -92 1 -151 -18z"/>
</g>
</svg>
